<?xml version="1.0" encoding="UTF-8"?>
<svg id="Layer_1" data-name="Layer 1" xmlns="http://www.w3.org/2000/svg" viewBox="0 0 797 302">
  <defs>
    <style>
      .cls-1 {
        fill: #f05f42;
      }

      .cls-2 {
        fill: #404041;
      }
    </style>
  </defs>
  <path class="cls-1" d="M25,25V232.3H100.76l42.7,42.7v-42.7h29.61V25H25Zm118.46,177.69h-29.61v-59.23h-29.69v59.23h-29.61V54.61h29.61v59.23h29.69l29.61,29.61v59.23Z"/>
  <g>
    <g>
      <path class="cls-2" d="M275.65,129.16h-10.58v-34.97h-21.16v34.97h-10.58V53.6h10.58v30.22h21.16v-30.22h10.58v75.56Z"/>
      <path class="cls-2" d="M333.72,91.27c0,21.91-7.02,39.07-22.99,39.07s-22.67-16.95-22.67-38.86,6.8-39.07,22.78-39.07,22.88,16.95,22.88,38.86Zm-10.79,.22c0-14.03-3.13-28.5-12.31-28.5s-11.77,14.25-11.77,28.28,3.02,28.5,12.2,28.5,11.87-14.25,11.87-28.28Z"/>
      <path class="cls-2" d="M380.88,129.16h-34.76V53.6h10.58V118.79h24.18v10.36Z"/>
      <path class="cls-2" d="M442.19,129.16h-10.36v-30.44c0-4.75,.11-15.76,.22-18.67-.86,3.02-4.1,14.03-5.83,19.54l-9.71,31.63-9.71-31.63c-1.73-5.5-4.96-16.51-5.83-19.54,.11,2.91,.22,13.92,.22,18.67v30.44h-9.93V53.6h11.12l9.71,31.41c1.4,4.53,3.99,13.82,4.64,16.51,.76-2.81,3.35-12.41,4.75-16.84l9.71-31.09h11.01v75.56Z"/>
      <path class="cls-2" d="M513.42,53.6l-13.6,75.56h-8.09l-5.18-26.45c-.97-4.75-3.35-18.35-3.67-21.05-.32,2.7-2.7,16.19-3.56,20.72l-5.18,26.77h-7.88l-13.49-75.56h10.58l4.53,27.2c.76,4.64,3.24,20.29,3.56,22.99,.32-2.7,2.81-18.46,3.45-22.88l4.32-27.31h8.1l4.43,27.31c.76,4.53,3.24,20.19,3.56,22.88,.43-2.7,2.7-18.24,3.45-22.99l4.43-27.2h10.25Z"/>
      <path class="cls-2" d="M565.01,91.27c0,21.91-7.02,39.07-22.99,39.07s-22.67-16.95-22.67-38.86,6.8-39.07,22.78-39.07,22.88,16.95,22.88,38.86Zm-10.79,.22c0-14.03-3.13-28.5-12.31-28.5s-11.77,14.25-11.77,28.28,3.02,28.5,12.2,28.5,11.87-14.25,11.87-28.28Z"/>
      <path class="cls-2" d="M620.38,91.27c0,21.91-7.02,39.07-22.99,39.07s-22.67-16.95-22.67-38.86,6.8-39.07,22.78-39.07,22.88,16.95,22.88,38.86Zm-10.79,.22c0-14.03-3.13-28.5-12.31-28.5s-11.77,14.25-11.77,28.28,3.02,28.5,12.2,28.5,11.87-14.25,11.87-28.28Z"/>
      <path class="cls-2" d="M675.09,91.05c0,22.45-7.99,38.1-23.96,38.1h-18.35V53.6h18.35c16.73,0,23.96,15,23.96,37.46Zm-10.9,0c0-13.28-2.81-27.09-13.38-27.09h-7.45v54.83h7.77c10.15,0,13.06-14.46,13.06-27.74Z"/>
      <path class="cls-2" d="M722.79,109.62c0,12.09-7.23,20.72-20.62,20.72-9.5,0-15.65-4.96-19.97-12.3l8.31-6.69c4.1,6.48,7.66,8.42,12.31,8.42,5.72,0,9.07-3.45,9.07-9.61,0-5.83-2.48-9.18-12.63-15.87-8.53-5.61-15.22-11.12-15.22-22.99,0-11.01,7.34-18.89,19.11-18.89,8.74,0,13.82,3.67,18.35,10.25l-7.77,6.91c-3.67-4.86-6.15-6.59-10.9-6.59-5.07,0-7.88,3.24-7.88,7.99,0,5.61,2.59,8.74,11.01,14.14,9.39,6.05,16.84,11.87,16.84,24.5Z"/>
    </g>
    <g>
      <path class="cls-2" d="M270.89,232.83h-36.9v-75.53h35.5v10.25h-24.93v20.18h16.29v10.14h-16.29v24.71h26.33v10.25Z"/>
      <path class="cls-2" d="M324.3,194.74c0,22.44-7.99,38.09-23.95,38.09h-18.34v-75.53h18.34c16.72,0,23.95,15,23.95,37.44Zm-10.9,0c0-13.27-2.81-27.08-13.38-27.08h-7.44v54.81h7.77c10.14,0,13.06-14.46,13.06-27.73Z"/>
      <path class="cls-2" d="M378.69,210.38c0,14.68-8.2,23.63-21.15,23.63s-21.15-9.28-21.15-22.98v-53.74h10.57v53.3c0,6.26,2.7,12.73,10.57,12.73,8.31,0,10.68-6.8,10.68-12.62v-53.41h10.47v53.09Z"/>
      <path class="cls-2" d="M433.07,214.91c-2.37,11.33-7.66,19.1-20.07,19.1-16.29,0-22.23-17.37-22.23-38.85s6.58-39.06,22.55-39.06c12.62,0,17.8,7.66,19.64,18.45l-10.68,2.7c-1.4-6.8-3.45-10.47-9.28-10.47-9.17,0-11.33,14.89-11.33,28.16s2.91,28.38,12.08,28.38c5.07,0,7.45-3.45,9.5-11.55l9.82,3.13Z"/>
      <path class="cls-2" d="M487.46,232.83h-11.55l-4.42-19.96h-16.4l-4.32,19.96h-11.22l18.56-75.53h10.9l18.45,75.53Zm-18.13-30l-2.81-12.73c-1.08-4.96-2.7-13.7-3.24-16.51-.54,2.81-2.16,11.44-3.24,16.51l-2.81,12.73h12.09Z"/>
      <path class="cls-2" d="M525.65,167.65h-13.92v65.17h-10.57v-65.17h-13.92v-10.36h38.41v10.36Z"/>
      <path class="cls-2" d="M547.88,232.83h-10.57v-75.53h10.57v75.53Z"/>
      <path class="cls-2" d="M606.47,194.95c0,21.9-7.01,39.06-22.98,39.06s-22.66-16.94-22.66-38.85,6.8-39.06,22.77-39.06,22.88,16.94,22.88,38.84Zm-10.79,.22c0-14.03-3.13-28.49-12.3-28.49s-11.76,14.24-11.76,28.27,3.02,28.49,12.19,28.49,11.87-14.24,11.87-28.27Z"/>
      <path class="cls-2" d="M661.18,232.83h-8.63l-18.24-40.46c-1.51-3.24-4.32-10.25-5.29-12.41,.11,2.81,.22,11.44,.22,15.11v37.77h-10.36v-75.53h10.57l16.29,35.93c1.51,3.24,4.32,10.25,5.29,12.41-.11-2.81-.22-11.44-.22-15.11v-33.23h10.36v75.53Z"/>
      <path class="cls-2" d="M719.34,232.83h-11.55l-4.42-19.96h-16.4l-4.32,19.96h-11.22l18.56-75.53h10.9l18.45,75.53Zm-18.13-30l-2.81-12.73c-1.08-4.96-2.7-13.7-3.24-16.51-.54,2.81-2.16,11.44-3.24,16.51l-2.81,12.73h12.08Z"/>
      <path class="cls-2" d="M764.34,232.83h-34.74v-75.53h10.57v65.17h24.17v10.36Z"/>
    </g>
  </g>
</svg>